<?xml version="1.0" encoding="utf-8"?>
<!-- Generator: Adobe Illustrator 27.9.3, SVG Export Plug-In . SVG Version: 9.03 Build 53313)  -->
<svg version="1.1" id="Layer_1" xmlns="http://www.w3.org/2000/svg" xmlns:xlink="http://www.w3.org/1999/xlink" x="0px" y="0px"
	 viewBox="0 0 616.5 420" style="enable-background:new 0 0 616.5 420;" xml:space="preserve">
<style type="text/css">
	.st0{fill:none;}
	.st1{fill-rule:evenodd;clip-rule:evenodd;}
	.st2{display:none;fill-rule:evenodd;clip-rule:evenodd;}
</style>
<g id="Layer_1_00000031902846506209588150000006855990593332948660_">
	<g>
		<path class="st0" d="M-126-101c264.2,0,528.3,0,792.5,0c0,250.1,0,500.3,0,750.4c-264.2,0-528.3,0-792.5,0
			C-126,399.3-126,149.1-126-101z M559,343.8c-1.6-0.3-3.2-0.7-4.8-0.9c-8.1-1.1-16.2-2-24.4-0.8c-7.7,1.2-14.4,4-18.4,11
			c-2.2,3.7-3.8,7.8-5.4,11.1c-0.4-1.2-1-3.4-1.9-5.4c-0.9-2-2-4-3.4-5.7c-11-14.4-29.3-15.9-43.8-6.3c-16,10.4-15.1,30.7-0.9,42.2
			c7.1,5.8,15.5,7.9,24.6,6.5c13.2-2,22.3-8.4,25.5-20.4c2,3.4,3.8,7.7,6.7,11.2c5.2,6.2,12.4,8.9,20.3,9.2
			c7.2,0.3,14.2-1.4,21.2-3.3c1.8-0.5,2.9-1.4,3.4-3.2c0.3-1.1,0.8-2.2,1-3.3c0.2-1.5,1.6-3.5-0.4-4.4c-2.2-1-2.6,1.5-3.4,2.7
			c-3.9,5.7-9.5,7.3-15.9,7c-7.9-0.3-14-4.2-18.8-10.4c-5.9-7.5-6.8-18.4-1.5-26.1c4.6-6.8,11.6-8.8,19.4-9.1
			c7.5-0.3,15.4,3.6,16.9,10.9c0.1,0.5,1,1.3,1.5,1.3c0.5,0,1.3-0.8,1.4-1.4C558.1,352.1,558.6,348,559,343.8
			c1.2,0.6,2.2,1.3,3.5,1.6c2,0.5,2.9,1.4,2.9,3.6c-0.1,8,0,16,0,24c0,5,0,10.1,0,15.1c0,1.9-0.4,3.6-2.7,4.1
			c-0.8,0.2-1.5,0.9-2.3,1.4c0.9,0.4,1.8,1.1,2.7,1.1c4.9,0.2,9.9,0.2,14.8,0.1c1,0,2-0.6,3-1c-0.9-0.6-1.8-1.1-2.7-1.7
			c-0.1-0.1-0.3,0-0.5-0.1c-2.2-0.1-3.1-1.3-3.1-3.6c0.1-5.3,0-10.6,0-15.8c0-0.5,0.1-1,0.3-2c4.9,4.8,9.6,9.1,14,13.7
			c4.5,4.7,9.6,8.3,15.6,10.7c3.5,1.4,7.1,1.2,10.7,0c0.6-0.2,1-1.1,1.5-1.6c-0.6-0.4-1.2-1.2-1.9-1.3c-5.1-0.7-9.1-3.5-12.7-6.7
			c-6.7-5.9-13-12.2-19.5-18.3c-0.5-0.5-1-1-1.7-1.8c6.1-5.4,11.8-10.9,17.9-15.8c2.4-2,5.6-2.9,8.5-4.3c0.7-0.4,1.3-0.9,2-1.4
			c-0.8-0.4-1.5-1-2.3-1c-4.3-0.1-8.6-0.1-12.9-0.2c-1.3,0-1.9,0.4-1.6,2c0.2,0.9-0.1,2.3-0.7,2.9c-5.4,5.5-10.9,10.9-16.4,16.3
			c-0.2-0.2-0.5-0.3-0.7-0.5c0-4.9-0.2-9.8,0.1-14.7c0.1-1.1,1.8-2.2,2.9-3.3c0.6-0.6,1.2-1,1.9-1.6c-0.8-0.3-1.5-0.9-2.3-1
			c-5.3-0.1-10.6-0.2-15.8-0.1C560.5,342.7,559.8,343.4,559,343.8z M218.7,301.9c1,1.7,2,0.5,2.9-0.2c1.8-1.3,3.3-3,5.1-4.2
			c5.7-3.6,11.7-6.7,17.3-10.6c10-7,19.8-14.3,29.6-21.6c9.1-6.7,18.2-13.5,27.1-20.4c10.3-7.9,20.4-16.1,30.6-24.1
			c10.5-8.2,21-16.4,31.8-24.2c8.7-6.3,17.8-12.1,26.7-18.1c0.9-0.6,1.8-1.3,3.3-2.3c0.2,1.7,0.6,2.8,0.3,3.8
			c-0.7,2.8-1.5,5.6-2.7,8.1c-2.5,5.2-4.9,10.5-8.1,15.2c-2.2,3.2-4.2,6.3-4.8,10.1c-0.6,4,0.5,5.8,4.4,5.9c3.1,0.1,6.2,0.6,10,1.1
			c-2.1,2.5-3.6,4.4-5.3,6.2c-8,8.2-16.1,16.3-24,24.6c-7.2,7.6-14.1,15.5-21.2,23.2c-3.1,3.3-5.5,7-6,11.6
			c-0.5,4.5,0.6,6.6,4.8,6.1c2-0.2,4.1-0.5,6-1.3c5.8-2.2,11.6-4.7,17.3-7.1c7.4-3,14.7-6.1,22.1-9.1c7.4-2.9,14.7-6.3,22.3-8.4
			c5-1.3,10.4-0.8,15.2,2.2c5.1,3.1,10.3,6.1,15.5,9c2.6,1.4,5.4,2.6,8.6,4c-6,5.6-11.7,10.7-18.2,14.4
			c-7.8,4.5-14.5,10.3-20.9,16.5c-2.2,2.1-3,4.7-3.3,7.5c-0.4,3.3,1.2,4.7,4.3,3.7c7-2.2,13.9-4.5,20.8-7.1c7-2.6,13.8-5.9,20.8-8.2
			c7.3-2.4,14.7-3.3,22.4-0.5c5.9,2.2,12.2,3.1,18.3,4.7c4.6,1.2,9.1,2.6,13.7,3.9c2.3,0.7,4.7,1.8,7,1.8c5.5,0,11-0.5,16.5-0.9
			c1.9-0.1,4-0.3,5.7-1.1c5.3-2.5,10.7-5,12.5-11.5c1.2-4.5,0-8.3-1.5-11.8c0.1-1.4,0.6-2.8,0.2-3.5c-1.4-1.9-3-4.1-5-4.9
			c-11.6-4.6-21.7-11.6-32.4-17.9c-5.3-3.1-9.9-7.4-14.7-11.2c-3.3-2.6-6.6-5.2-9.6-8.2c-5.6-5.7-11-11.6-16.5-17.4
			c-0.5-0.5-0.9-0.9-1.3-1.5c-7.3-11.2-16.9-20.3-26.1-29.8c-0.4-0.4-1.1-0.7-1.7-1c-2.9-1.2-4.7,0.8-6.8,2.7
			c-2.3-3.3-5.2-6.3-6.8-9.8c-5.4-12.1-10.2-24.4-15.4-36.5c-1.3-3.1-3.4-5.9-5.2-8.8c-1.1-1.7-2.9-2.1-4.6-1.4
			c-3.9,1.5-7.9,2.9-11.6,4.8c-3.5,1.8-6.8,3.9-10.1,6.1c-5.6,3.9-11.1,7.8-16.6,11.9c-3.6,2.8-7,5.9-10.9,9.1
			c-3.5-4.1-7.4-7.7-10.2-12c-4.8-7.2-9.3-14.6-13.1-22.3c-4-7.9-7.1-16.2-10.5-24.4c-1.3-3.1-2.8-6.2-3.8-9.4
			c-3.2-9.7-6-19.6-9.5-29.2c-2.9-8.2-5.2-16.5-6.6-25.2c-1.1-6.4-2.7-12.6-4.5-18.8c-0.9-3.3-2.6-6.4-4.2-9.4
			c-1.1-2.1-4.1-2.7-5.4-1.2c-3.2,3.7-6.6,7.3-9.4,11.2c-6.4,9.2-12.5,18.7-18.9,28c-5.2,7.6-10.7,15-15.7,22.7
			c-8.1,12.4-15.7,25.1-24,37.3c-7.3,10.6-15.1,21-23.1,31.1c-6,7.5-12.7,14.5-19.1,21.7c-1.5,1.7-3.1,3.4-4.8,4.9
			c-4.6,4-9.5,7.8-14,12c-3.3,3-6.2,6.6-9.4,9.7c-2,1.9-4.3,3.4-6.5,5.1c0,0.2,0,0.4,0.1,0.6c1.8,0,3.9,0.5,5.5-0.1
			c3.2-1.3,6.4-3,9.3-5c3-2.1,5.5-5,8.6-6.9c8.1-4.8,14.4-11.5,20.8-18.1c7.4-7.5,14.6-15.2,21.9-22.8c2.5-2.5,5.3-4.7,7.6-7.4
			c6.7-7.9,13.1-16,19.8-24c4.3-5.1,8.8-10,13-15.2c3.9-4.7,7.5-9.7,11.2-14.6c-0.9,6-1.6,11.9-2.8,17.6c-1.6,7.4-3.4,14.9-5.8,22.1
			c-3.5,10.8-6.9,21.9-11.7,32.1c-4.8,10.3-11.5,19.7-17.2,29.6c-2,3.5-3.6,7.3-5.2,11.1c-0.3,0.8,0,1.8,0,2.7
			c0.3,0.1,0.6,0.3,0.9,0.4c3.8-2.6,7.8-4.8,11.2-7.9c5.1-4.6,9.8-9.7,14.7-14.5c6.4-6.4,13.1-12.5,19.1-19.3
			c4.1-4.6,7.3-10,10.9-15.1c2.3-3.3,4.6-6.6,7.4-10.5c0.3,2.9,0.6,5,0.9,7.1c0.9,6.3,1.6,12.7,2.8,18.9c1.4,7,5.3,12.8,9,18.8
			c5.5,8.9,10.8,17.9,18.7,24.9c0.9,0.8,2,1.4,3.1,2.2c-2.2,2.5-3.7,4.4-5.4,6c-9.6,9.4-19.3,18.7-29,28
			c-7.6,7.3-15.2,14.6-22.8,21.9c-6.4,6.1-12.8,12.2-19.2,18.2c-2,1.8-4.1,3.5-6.2,5.2c-2.2,1.7-4.4,3.4-6.6,5.1
			C221.4,299.8,220.2,300.7,218.7,301.9z M201.3,121.3c0-3,0.1-5.5-0.1-8c-0.1-0.6-1-1.4-1.8-1.7c-1.7-0.7-3.5-1-5.2-1.6
			c-4.8-1.7-9.5-3.7-14.4-5c-23.3-6.4-46.7-12.7-70-19c-2-0.5-2.6-1.4-2.6-3.4c0.1-8,0.2-16,0-24c-0.5-14.6,1.3-29.2-0.4-43.7
			c-0.3-3-1.1-3.7-4.1-2.7c-3.5,1.1-6.9,2.4-10.5,3.5c-5.1,1.6-10.2,3.2-15.4,4.5c-2.7,0.7-3.5,1.8-3.5,4.5
			c0.1,16.8,0,33.5,0.1,50.3c0,2.2-0.6,3.3-2.8,3.8c-4.7,1.2-9.3,2.7-14,4c-3.5,1-7,2.1-10.9,3.2c0-1.4,0-2.4,0-3.3
			c0-15.8,0-31.7,0-47.5c0-1.7-0.4-3.4-0.6-5.3c-1.2,0.3-2.1,0.5-2.9,0.7c-8.7,2.8-17.4,5.4-26.1,8.3c-7,2.4-6.7,1.7-6.8,9.3
			c-0.1,8.5,0.3,17,0.3,25.5c0,12.3-0.2,24.6-0.4,36.9c0,0.7,0.1,1.5,0.1,2.3c1-0.1,1.9-0.2,2.8-0.4c8.2-2.1,16.4-4,24.5-6.2
			c20.3-5.5,40.6-11.1,60.9-16.6c5.8-1.6,5.7-1.6,5.4,4.5c-0.1,1.6-0.9,2.2-2.2,2.4c-2.2,0.4-4.4,0.8-6.5,1.3
			c-14.7,3.4-29.4,6.8-44,10.4c-12.6,3-25.2,6.2-37.8,9.4c-1.1,0.3-2.9,1.1-3,1.8c-0.3,3.3-0.1,6.6-0.1,10c4.5-0.3,8.4-0.4,12.3-0.8
			c7.7-0.8,15.3-1.6,23-2.6c9.4-1.2,18.9-2.5,28.3-3.8c9-1.3,18-2.5,27-3.8c2.5-0.4,2.9-0.1,3,2.4c0,0.7,0.2,1.6-0.1,2.2
			c-0.3,0.7-1.1,1.7-1.7,1.8c-2.8,0.4-5.7,0.4-8.6,0.6c-4.2,0.3-8.4,0.7-12.5,1.1c-7.1,0.7-14.2,1.6-21.3,2.4
			c-6.9,0.7-13.7,1.3-20.6,2.1c-8.6,1-17.2,2.3-25.9,3.4c-1.9,0.2-2.8,1-2.8,3.2c0.1,8.2,0.1,16.3,0.1,24.5c0,25.1,0,50.2,0,75.3
			c0,5.6,0.3,11.2,0.1,16.8c-0.1,2.3,0.4,3.9,1.9,5.5c11.6,12.5,23,25.1,34.5,37.7c5.6,6.1,11.1,12.2,16.7,18.2
			c5.3,5.7,10.6,11.3,16,16.9c5.3,5.6,10.5,11.1,15.8,16.7c3.1,3.3,6.1,6.6,9.2,10c1.1,1.3,2.3,1.4,2.8-0.3c0.5-1.7,0.5-3.5,0.5-5.3
			c0-73.8,0-147.6,0-221.4c0-3,0.5-3.3,3.5-2.9c4.1,0.6,8.3,1,12.5,1.4c5.3,0.6,10.6,1.1,15.9,1.6c6,0.6,12.1,1.3,18.1,1.8
			c6,0.6,12.1,1.1,18.2,1.6c7.8,0.6,15.6,1.2,23.3,1.8c1.4,0.1,2-0.4,2-1.8c0-1.9,0-3.8,0.2-5.7c0.1-1.5-0.4-2.1-1.8-2.3
			c-2.7-0.4-5.5-0.9-8.2-1.3c-9.8-1.5-19.6-3.1-29.4-4.5c-9.1-1.3-18.2-2.7-27.3-3.9c-8.4-1.1-16.8-2-25.2-3.1
			c-0.6-0.1-1.7-0.8-1.7-1.2c-0.1-4.2-0.1-8.5-0.1-13.2C138.8,107.9,169.6,115.7,201.3,121.3z M172.5,92.8c0.1-1.5,0.3-2.1,0.3-2.8
			c-0.2-19-0.3-38.1-0.5-57.1c0-2.2-1.2-3-3.2-1.9c-1.1,0.6-2.1,1.4-2.8,2.4c-5.8,7.2-11.6,14.5-17.3,21.9
			c-4.8,6.3-9.2,12.8-13.9,19.1c-1.6,2.1-3.3,4.2-5.2,6.7C144.3,84.9,158.2,88.8,172.5,92.8z M324.6,344.9c5.3,0.4,5.5,0.7,5.5,5.7
			c0,9.7,0,19.3,0,29c0,2.9,0,5.8-0.1,8.7c-0.1,1.9-0.8,3.5-3,4c-0.6,0.2-1.1,0.9-1.7,1.4c0.7,0.3,1.4,0.8,2.1,0.8
			c10.6,0.2,21.3,0.3,31.9,0.4c0.7,0,1.8-0.8,1.9-1.3c0.5-2.6,0.7-5.2,0.9-7.8c0-0.8-0.5-1.6-0.7-2.3c-0.8,0.5-1.9,0.7-2.3,1.4
			c-1.7,3-4.3,4.7-7.5,5.6c-7.3,2-12.3-1.7-12.3-9.2c0-10.3,0-20.6,0-30.9c0-3.9,0.3-4.2,4.2-5c0.6-0.1,1.1-0.6,1.6-0.9
			c-0.5-0.5-0.9-1.2-1.5-1.3c-2.7-0.3-5.4-0.7-8.1-0.7c-6.9,0.1-13.8,0.4-20.7,0.5c-8.7,0.1-17.3,0.1-26,0c-3.1,0-6.2-0.7-9.3-0.9
			c-0.9-0.1-2.3,0.4-2.5,1c-0.9,2.1-1.4,4.4-1.9,6.6c-0.1,0.8,0.5,1.8,0.8,2.6c0.8-0.5,1.8-0.7,2.3-1.4c1.8-2.3,4.1-3.4,7.1-3.4
			c2.6,0,5.1,0.1,7.7,0c1.7-0.1,2.5,0.4,2.5,2.3c-0.1,12.8-0.1,25.6,0,38.4c0,2.3-0.8,3.7-3.3,4.1c-0.6,0.1-1.2,0.8-1.8,1.3
			c0.7,0.3,1.3,0.9,2,0.9c5,0.2,10.1,0.4,15.1,0.4c1.3,0,2.6-0.7,3.9-1.1c-1.2-0.6-2.4-1.6-3.6-1.9c-1.8-0.3-2.6-1.1-2.8-2.8
			c-0.1-1.1-0.4-2.1-0.4-3.2c0-12,0-24.1,0-36.1c0-1.6,0.6-2.3,2.1-2.3c2.5,0,5-0.2,7.4,0c2.9,0.2,5.8,0.8,6.8,4.3
			c0.1,0.5,1.2,1.1,1.6,1c0.5-0.1,1.1-0.9,1.2-1.5C324.2,349.2,324.3,347.2,324.6,344.9z M121,367.4c-0.1,14.7,9.7,28.8,26.4,32.3
			c11,2.3,21.8,0.4,32.7-1.2c0.7-0.1,1.5-0.8,1.8-1.4c2.1-4.2,3.1-8.7,2.4-13.4c-0.1-0.6-0.6-1.6-1-1.6c-0.7,0-1.5,0.4-2,0.9
			c-0.5,0.5-0.7,1.3-1,2c-4.1,9.2-10,11.6-19,11.1c-9.7-0.6-17.1-5.2-23-13.1c-9.5-12.7-9.5-33.2,1.3-43.5
			c6.8-6.5,22.5-9.4,31.1-4.3c4.8,2.9,7.2,7.3,8.6,12.5c0.2,0.8,1.1,1.3,1.7,2c0.4-0.7,1.2-1.4,1.3-2.1c0.6-3.9,1.2-7.8,1.4-11.8
			c0.2-5.3,1.3-5.6-4.9-5.9c-0.3,0-0.6-0.1-1-0.2c-7.8-1-15.5-2.6-23.4-1.7c-10.5,1.1-20,3.6-26,13.6
			C123.9,348.9,120.9,356.6,121,367.4z M428.8,370.3c0.9-0.7,1.9-1.1,2.5-1.9c2-3.1,4.4-6,5.7-9.4c2.2-5.8-0.2-11.1-5.7-13.9
			c-2-1-4.2-1.8-6.3-1.9c-8.2-0.5-16.5-0.6-24.7-0.8c-0.8,0-1.5,0.6-2.3,1c0.7,0.6,1.3,1.3,2.1,1.8c0.4,0.3,1,0.2,1.4,0.3
			c1.6,0.3,2.4,1.2,2.4,2.9c0,13.4,0,26.7,0,40.1c0,2.1-0.8,3.4-3.1,3.8c-0.7,0.1-1.3,0.8-1.9,1.2c0.7,0.4,1.4,1.1,2.1,1.1
			c5.4,0.2,10.9,0.3,16.3,0.4c0.8,0,1.7-0.6,2.5-1c-0.8-0.6-1.6-1.2-2.4-1.7c-0.3-0.2-0.6-0.1-1-0.1c-1.8-0.1-2.9-1-3-2.9
			c-0.1-4.3-0.2-8.6-0.4-12.8c-0.1-1.7,0.6-2.2,2.3-2.3c5.4-0.3,9,2.6,12.1,6.5c2.9,3.6,5.6,7.4,8.9,10.6c5.1,4.9,11.4,6,18.1,3.8
			c0.5-0.2,0.9-0.8,1.4-1.2c-0.5-0.5-1-1.3-1.5-1.3c-5.1-0.2-8.9-3.2-12.1-6.6C437.6,381.1,433.6,375.9,428.8,370.3z M226.9,394.2
			c-0.3-0.1,0.1,0.2,0.5,0.2c4.7,0,9.4,0.1,14.1,0c0.5,0,1.1-0.7,1.6-1.1c-0.5-0.4-1-1.2-1.5-1.3c-3.9-0.4-5.6-3.1-7-6.2
			c-4.8-10.9-9.6-21.9-14.4-32.8c-1.5-3.4-3.1-6.7-5-9.9c-1.3-2.2-2.7-2-3.7,0.3c-5.9,14.1-11.8,28.3-17.7,42.5
			c-1.2,2.9-2.9,5.3-6.1,6.4c-0.6,0.2-1,0.8-1.6,1.2c0.7,0.3,1.3,0.9,2,1c4.5,0.1,8.9,0.2,13.4,0.1c0.7,0,1.3-0.6,2-0.9
			c-0.6-0.5-1.1-1.1-1.8-1.3c-1.8-0.5-2.5-1.4-1.8-3.3c1.5-4.2,2.9-8.4,4.6-12.5c0.3-0.8,1.7-1.6,2.6-1.6c3.6-0.2,7.3,0,10.9-0.1
			c1.5,0,2.2,0.5,2.8,1.9c1.7,4.2,3.6,8.3,5.2,12.5C226.4,390.4,226.5,392,226.9,394.2z M361.9,342.8c0,0.4-0.1,0.7-0.1,1.1
			c0.9,0.4,1.8,1,2.8,1.3c3.6,1.2,3.6,1.2,3.6,5.1c0,11.6,0,23.1,0,34.7c0,1.6-0.1,3.2-0.6,4.6c-0.4,1-1.5,1.8-2.3,2.6
			c-0.6,0.6-1.4,1-2.1,1.5c0.9,0.3,1.8,0.8,2.6,0.8c5.9,0.1,11.9,0,17.8,0c3.1,0,6.3,0.1,9.4,0.2c1.7,0,2.8-0.7,3.1-2.5
			c0.3-2,1-4,1.3-6c0.1-0.7-0.6-1.4-0.9-2.2c-0.6,0.5-1.2,0.9-1.6,1.4c-1.1,1.3-1.8,3.2-3.1,4c-4.2,2.5-8.6,2-12.6-0.6
			c-1-0.6-1.7-2.3-1.7-3.5c-0.2-3.5-0.1-7.1-0.1-10.6c0-6.5,0-6.5,6.6-5.7c2.9,0.3,6.1,0,6.9,4.1c0.1,0.4,1.2,1,1.8,0.9
			c0.5-0.1,1.1-0.9,1.2-1.5c0.5-2.8,0.9-5.7,1.2-8.6c0.1-0.6-0.1-1.6-0.6-1.9c-0.4-0.3-1.3,0.1-2,0.4c-1.6,0.7-3.1,1.8-4.7,2
			c-2.8,0.3-5.8,0.2-8.6,0c-0.6,0-1.6-1.1-1.7-1.7c-0.1-4.6-0.1-9.2,0-13.9c0-0.6,1-1.7,1.6-1.7c2.5-0.2,5-0.2,7.4,0
			c2.4,0.2,4.5,1,5.1,3.8c0.1,0.6,0.9,1,1.4,1.4c0.5-0.5,1.2-0.9,1.4-1.5c0.6-2.2,1.1-4.5,1.6-6.7c0.4-1.9-0.4-2.3-2.2-2.1
			c-3.2,0.4-6.4,0.7-9.6,0.7c-6.4,0-12.7-0.2-19.1-0.3C364,342.3,362.9,342.6,361.9,342.8z M274.2,346.9c-0.2-4.7-0.2-4.7-4.8-5.4
			c-0.2,0-0.5-0.1-0.7-0.1c-7.6-0.5-14.9,0.4-21,5.5c-3.2,2.6-4.1,6.2-2.4,10c1,2.1,2.4,4.2,4,5.9c3.4,3.4,7.1,6.4,10.6,9.7
			c2.4,2.3,4.6,4.7,6.6,7.3c1.5,2,1.7,4.5,0.4,6.8c-1.8,3.1-7.3,5.2-11.4,4.4c-5.2-1-6.8-2.8-7.6-7.8c-0.1-0.7-0.9-1.3-1.4-2
			c-0.5,0.6-1.2,1-1.4,1.7c-0.4,0.9-0.4,1.9-0.7,2.9c-1.3,5.6,1,8.8,6.7,9.7c6.3,0.9,12.1-0.5,17.2-3.9c2.6-1.7,5-4.2,6.4-6.9
			c2.5-5.2,0.3-9.9-3.6-13.6c-3-2.9-6.5-5.3-9.7-8.1c-2.4-2.1-4.9-4.3-6.8-6.8c-2.3-3.1-1.3-7,1.7-9.1c5.2-3.6,12-1.2,13.9,4.8
			c0.2,0.5,0.7,1.4,1.1,1.4c0.6,0,1.6-0.5,1.7-1C273.5,350.4,273.8,348.7,274.2,346.9z"/>
		<path class="st1" d="M218.7,301.9c1.5-1.2,2.7-2.1,3.9-3c2.2-1.7,4.4-3.4,6.6-5.1c2.1-1.7,4.2-3.4,6.2-5.2
			c6.4-6,12.8-12.1,19.2-18.2c7.6-7.3,15.2-14.5,22.8-21.9c9.7-9.3,19.3-18.6,29-28c1.7-1.7,3.2-3.5,5.4-6c-1.1-0.7-2.2-1.3-3.1-2.2
			c-7.9-7-26.4-36.7-27.8-43.7c-1.2-6.3-1.9-12.6-2.8-18.9c-0.3-2.1-0.5-4.2-0.9-7.1c-2.8,3.9-5.1,7.2-7.4,10.5
			c-3.6,5.1-6.8,10.5-10.9,15.1c-6,6.7-12.7,12.9-19.1,19.3c-4.9,4.9-9.6,10-14.7,14.5c-3.4,3-7.4,5.3-11.2,7.9
			c-0.3-0.1-0.6-0.3-0.9-0.4c0-0.9-0.3-2,0-2.7c1.6-3.7,3.2-7.6,5.2-11.1c5.7-9.9,12.4-19.3,17.2-29.6c4.8-10.3,8.2-21.3,11.7-32.1
			c2.4-7.2,4.1-14.7,5.8-22.1c1.3-5.7,1.9-11.6,2.8-17.6c-3.8,4.9-7.3,9.9-11.2,14.6c-4.2,5.2-8.8,10-13,15.2
			c-6.6,7.9-13.1,16.1-19.8,24c-2.3,2.7-5.1,4.9-7.6,7.4c-7.3,7.6-14.6,15.3-21.9,22.8c-6.4,6.6-35.5,28.7-38.7,30
			c-1.6,0.6-4,1.7-5.3,0.4c-0.2-0.1-0.2-0.7-0.2-1c2.2-1.7,12.6-11.8,15.9-14.8c4.5-4.2,9.4-8,14-12c1.7-1.5,3.3-3.2,4.8-4.9
			c6.4-7.2,13.1-14.2,19.1-21.7c8-10.1,15.8-20.4,23.1-31.1c8.3-12.2,15.9-24.9,24-37.3c5-7.7,10.5-15.1,15.7-22.7
			c6.3-9.3,12.4-18.8,18.9-28c2.8-4,6.2-7.6,9.4-11.2c1.3-1.5,4.4-0.9,5.4,1.2c1.6,3.1,3.3,6.1,4.2,9.4c1.8,6.2,3.5,12.5,4.5,18.8
			c1.4,8.6,3.6,16.9,6.6,25.2c3.5,9.6,6.3,19.5,9.5,29.2c1.1,3.2,2.5,6.2,3.8,9.4c3.5,8.2,6.5,16.5,10.5,24.4
			c3.9,7.7,8.4,15.1,13.1,22.3c2.9,4.3,6.7,8,10.2,12c3.9-3.3,7.3-6.4,10.9-9.1c5.4-4.1,11-8.1,16.6-11.9c3.2-2.2,6.6-4.4,10.1-6.1
			c3.7-1.9,7.7-3.3,11.6-4.8c1.7-0.6,3.5-0.3,4.6,1.4c1.8,2.9,3.9,5.7,5.2,8.8c5.2,12.1,10.1,24.4,15.4,36.5
			c1.6,3.5,4.4,6.5,6.8,9.8c2.1-1.9,3.9-3.9,6.8-2.7c0.6,0.2,1.2,0.5,1.7,1c9.2,9.5,18.8,18.6,26.1,29.8c0.4,0.5,0.8,1,1.3,1.5
			c5.5,5.8,10.9,11.7,16.5,17.4c2.9,3,6.3,5.5,9.6,8.2c4.8,3.8,9.4,8.1,14.7,11.2c10.6,6.2,20.8,13.3,32.4,17.9c2,0.8,3.6,3.1,5,4.9
			c0.5,0.6,2.6,10.8,1.4,15.3c-1.8,6.5-7.1,9-12.5,11.5c-1.7,0.8-3.8,0.9-5.7,1.1c-5.5,0.4-21.2-0.2-23.5-0.9
			c-4.6-1.3-26.1-6.4-32-8.6c-7.7-2.8-15.1-2-22.4,0.5c-7.1,2.3-13.8,5.6-20.8,8.2c-6.8,2.6-13.8,4.9-20.8,7.1
			c-3.1,1-4.6-0.4-4.3-3.7c0.3-2.8,1.1-5.4,3.3-7.5c6.4-6.3,13-12.1,20.9-16.5c6.6-3.7,12.2-8.8,18.2-14.4c-3.2-1.5-6-2.6-8.6-4
			c-5.2-2.9-10.4-5.9-15.5-9c-4.8-3-10.3-3.5-15.2-2.2c-7.6,2.1-14.9,5.4-22.3,8.4c-7.4,2.9-14.7,6-22.1,9.1
			c-5.8,2.4-11.5,4.8-17.3,7.1c-1.9,0.7-4,1-6,1.3c-4.2,0.5-5.3-1.6-4.8-6.1c0.5-4.6,2.9-8.3,6-11.6c7.1-7.7,14-15.6,21.2-23.2
			c7.9-8.3,16-16.4,24-24.6c1.7-1.8,3.2-3.7,5.3-6.2c-3.8-0.4-6.9-1-10-1.1c-3.8-0.1-4.9-1.9-4.4-5.9c0.5-3.8,2.5-6.9,4.8-10.1
			c3.2-4.7,5.6-10,8.1-15.2c1.2-2.6,2-5.4,2.7-8.1c0.3-1-0.1-2.1-0.3-3.8c-1.5,1-2.4,1.7-3.3,2.3c-8.9,6-18,11.8-26.7,18.1
			c-10.8,7.8-21.2,16-31.8,24.2c-10.3,8-20.3,16.2-30.6,24.1c-9,6.9-18,13.7-27.1,20.4c-9.8,7.3-19.6,14.6-29.6,21.6
			C238.5,290.8,219.7,303.5,218.7,301.9z"/>
		<path class="st1" d="M201.3,121.3c-31.7-5.6-62.5-13.4-93.9-21c0,4.7-0.1,8.9,0.1,13.2c0,0.4,1.1,1.1,1.7,1.2
			c8.4,1.1,16.8,2,25.2,3.1c9.1,1.2,18.2,2.5,27.3,3.9c9.8,1.5,19.6,3,29.4,4.5c2.7,0.4,5.5,1,8.2,1.3c1.4,0.2,2,0.8,1.8,2.3
			c-0.2,1.9-0.2,3.8-0.2,5.7c0,1.4-0.6,1.9-2,1.8c-7.8-0.6-15.6-1.2-23.3-1.8c-6.1-0.5-12.1-1-18.2-1.6c-6-0.6-12.1-1.2-18.1-1.8
			c-5.3-0.5-10.6-1.1-15.9-1.6c-4.2-0.4-8.3-0.9-12.5-1.4c-3.1-0.4-3.5-0.1-3.5,2.9c0,73.8,0,147.6,0,221.4c0,1.8,0,3.6-0.5,5.3
			c-0.5,1.6-1.6,1.5-2.8,0.3c-3-3.4-6.1-6.7-9.2-10c-5.2-5.6-10.5-11.2-15.8-16.7c-5.3-5.6-10.7-11.2-16-16.9
			c-5.6-6-11.2-12.1-16.7-18.2c-11.5-12.6-23-25.2-34.5-37.7c-1.5-1.6-2-3.2-1.9-5.5c0.2-5.6-0.1-11.2-0.1-16.8
			c0-25.1,0-50.2,0-75.3c0-8.2,0.1-16.3-0.1-24.5c0-2.1,0.8-2.9,2.8-3.2c8.6-1.1,17.2-2.4,25.9-3.4c6.8-0.8,13.7-1.4,20.6-2.1
			c7.1-0.8,14.2-1.6,21.3-2.4c4.2-0.4,8.3-0.8,12.5-1.1c2.9-0.2,5.8-0.2,8.6-0.6c0.7-0.1,1.4-1,1.7-1.8c0.3-0.6,0.1-1.5,0.1-2.2
			c0-2.5-0.5-2.8-3-2.4c-9,1.3-18,2.6-27,3.8c-9.4,1.3-18.8,2.6-28.3,3.8c-7.7,1-15.3,1.8-23,2.6c-3.9,0.4-7.9,0.5-12.3,0.8
			c0-3.4,0-8.1,0.3-11.4c0.1-0.7,28-6.8,40.6-9.8c14.7-3.5,29.4-6.9,44-10.4c2.2-0.5,4.3-0.9,6.5-1.3c1.4-0.2,2.1-0.8,2.2-2.4
			c0.3-6.1,0.4-6.1-5.4-4.5c-20.3,5.6-40.6,11.1-60.9,16.6c-8.1,2.2-16.3,4.2-24.5,6.2c-0.9,0.2-1.8,0.3-2.8,0.4
			c-0.1-0.9-0.1-1.6-0.1-2.3c0.1-12.3,0.3-24.6,0.4-36.9c0-8.5-0.4-17-0.3-25.5c0.1-7.7-0.2-6.9,6.8-9.3c8.6-3,17.4-5.6,26.1-8.3
			c0.8-0.3,1.7-0.4,2.9-0.7c0.2,1.9,0.6,3.6,0.6,5.3c0,15.8,0,31.7,0,47.5c0,1,0,1.9,0,3.3c3.9-1.1,7.4-2.2,10.9-3.2
			c4.7-1.4,9.3-2.8,14-4c2.2-0.6,2.8-1.6,2.8-3.8c-0.1-16.8,0-33.5-0.1-50.3c0-2.7,0.8-3.9,3.5-4.5c5.2-1.3,10.3-2.9,15.4-4.5
			c3.5-1.1,7-2.4,10.5-3.5c3-1,3.8-0.3,4.1,2.7c1.7,14.6-0.1,29.2,0.4,43.7c0.2,8,0.1,16,0,24c0,2,0.6,2.9,2.6,3.4
			c23.4,6.3,46.7,12.5,70,19c4.9,1.3,17.9,6,19.6,6.6c0.7,0.3,1.7,1.1,1.8,1.7C201.5,115.8,201.3,118.3,201.3,121.3z"/>
		<path class="st2" d="M559,343.8c-0.5,4.2-0.9,8.3-1.4,12.5c-0.1,0.5-0.9,1.4-1.4,1.4c-0.5,0-1.3-0.8-1.5-1.3
			c-1.5-7.3-9.4-11.2-16.9-10.9c-7.7,0.3-14.8,2.2-19.4,9.1c-5.2,7.8-4.4,18.6,1.5,26.1c4.9,6.1,10.9,10,18.8,10.4
			c6.4,0.3,12-1.3,15.9-7c0.8-1.2,1.2-3.7,3.4-2.7c2,0.9,0.6,2.9,0.4,4.4c-0.1,1.1-0.7,2.2-1,3.3c-0.5,1.8-1.5,2.7-3.4,3.2
			c-7,1.8-13.9,3.6-21.2,3.3c-8-0.3-15.2-3-20.3-9.2c-2.9-3.5-4.7-7.8-6.7-11.2c-3.2,12.1-12.3,18.4-25.5,20.4
			c-9.1,1.4-17.5-0.7-24.6-6.5c-14.1-11.5-15.1-31.7,0.9-42.2c14.6-9.5,32.8-8.1,43.8,6.3c1.3,1.8,2.4,3.7,3.4,5.7
			c0.9,2,1.5,4.2,1.9,5.4c1.6-3.3,3.2-7.4,5.4-11.1c4.1-7,10.7-9.8,18.4-11c8.2-1.2,16.3-0.3,24.4,0.8
			C555.8,343.1,557.4,343.5,559,343.8L559,343.8z M497.6,370.4c0.6-13-9.6-27.4-26.4-24.5c-6.3,1.1-11.3,4.1-14.4,9.8
			c-4.8,8.9-2.9,19.3,4.1,28.3c7,9.1,22.7,9.4,30,2.5C495.5,382.1,497.8,376.4,497.6,370.4z"/>
		<path class="st1" d="M172.5,92.8c-14.3-4-20.1-5.6-34.5-9.6c1.9-2.5,22.4-42.7,28.2-49.9c0.8-0.9,1.8-1.8,2.8-2.4
			c2-1.1,3.2-0.3,3.2,1.9c0.2,19,0.4,38.1,0.5,57.1C172.8,90.6,172.7,91.3,172.5,92.8z"/>
		<path class="st2" d="M324.6,344.9c-0.3,2.2-0.5,4.3-0.8,6.3c-0.1,0.6-0.7,1.4-1.2,1.5c-0.5,0.1-1.5-0.5-1.6-1
			c-1-3.5-3.8-4.1-6.8-4.3c-2.5-0.2-4.9,0-7.4,0c-1.6,0-2.1,0.7-2.1,2.3c0,12,0,24.1,0,36.1c0,1.1,0.3,2.1,0.4,3.2
			c0.1,1.7,0.9,2.5,2.8,2.8c1.3,0.2,2.4,1.2,3.6,1.9c-1.3,0.4-2.6,1.1-3.9,1.1c-5,0-10.1-0.2-15.1-0.4c-0.7,0-1.3-0.6-2-0.9
			c0.6-0.4,1.1-1.2,1.8-1.3c2.4-0.4,3.3-1.8,3.3-4.1c0-12.8,0-25.6,0-38.4c0-1.9-0.8-2.4-2.5-2.3c-2.6,0.1-5.1,0.1-7.7,0
			c-2.9,0-5.2,1-7.1,3.4c-0.5,0.7-1.5,0.9-2.3,1.4c-0.3-0.9-0.9-1.8-0.8-2.6c0.4-2.3,1-4.5,1.9-6.6c0.2-0.6,1.7-1.1,2.5-1
			c3.1,0.2,6.2,0.9,9.3,0.9c8.7,0.1,17.3,0.1,26,0c6.9-0.1,13.8-0.4,20.7-0.5c2.7,0,5.4,0.3,8.1,0.7c0.5,0.1,1,0.9,1.5,1.3
			c-0.5,0.3-1,0.8-1.6,0.9c-3.9,0.8-4.2,1.1-4.2,5c0,10.3,0,20.6,0,30.9c0,7.5,5,11.3,12.3,9.2c3.2-0.9,5.8-2.6,7.5-5.6
			c0.4-0.7,1.5-1,2.3-1.4c0.3,0.8,0.8,1.6,0.7,2.3c-0.2,2.6-0.4,5.2-0.9,7.8c-0.1,0.5-1.2,1.3-1.9,1.3c-10.6,0-21.3-0.2-31.9-0.4
			c-0.7,0-1.4-0.6-2.1-0.8c0.6-0.5,1.1-1.2,1.7-1.4c2.2-0.5,2.9-2,3-4c0.1-2.9,0.1-5.8,0.1-8.7c0-9.7,0-19.3,0-29
			C330.1,345.6,329.9,345.4,324.6,344.9z"/>
		<path class="st2" d="M121,367.4c0-10.8,3-18.5,7.4-26c6-10,15.5-12.5,26-13.6c7.9-0.8,15.6,0.7,23.4,1.7c0.3,0,0.6,0.2,1,0.2
			c6.2,0.3,5.1,0.6,4.9,5.9c-0.2,3.9-0.8,7.9-1.4,11.8c-0.1,0.8-0.8,1.4-1.3,2.1c-0.6-0.7-1.5-1.2-1.7-2c-1.5-5.2-3.9-9.6-8.6-12.5
			c-8.6-5.2-24.2-2.3-31.1,4.3c-10.8,10.3-10.8,30.8-1.3,43.5c5.9,7.9,13.3,12.5,23,13.1c9,0.5,14.8-1.9,19-11.1
			c0.3-0.7,0.5-1.5,1-2c0.5-0.5,1.3-1,2-0.9c0.4,0,1,1,1,1.6c0.7,4.7-0.4,9.2-2.4,13.4c-0.3,0.6-1.1,1.3-1.8,1.4
			c-10.8,1.6-21.7,3.5-32.7,1.2C130.6,396.1,120.9,382,121,367.4z"/>
		<path class="st2" d="M428.8,370.3c4.8,5.6,8.9,10.8,13.5,15.5c3.2,3.4,7,6.4,12.1,6.6c0.5,0,1,0.8,1.5,1.3c-0.5,0.4-0.8,1-1.4,1.2
			c-6.8,2.2-13,1.2-18.1-3.8c-3.3-3.2-6-7-8.9-10.6c-3.1-3.9-6.7-6.8-12.1-6.5c-1.7,0.1-2.4,0.5-2.3,2.3c0.2,4.3,0.3,8.6,0.4,12.8
			c0.1,1.9,1.1,2.8,3,2.9c0.3,0,0.7,0,1,0.1c0.8,0.5,1.6,1.1,2.4,1.7c-0.8,0.3-1.7,1-2.5,1c-5.4,0-10.9-0.2-16.3-0.4
			c-0.7,0-1.4-0.7-2.1-1.1c0.6-0.4,1.2-1.1,1.9-1.2c2.3-0.3,3.1-1.7,3.1-3.8c0-13.4,0-26.7,0-40.1c0-1.7-0.9-2.6-2.4-2.9
			c-0.5-0.1-1.1,0-1.4-0.3c-0.7-0.5-1.4-1.2-2.1-1.8c0.8-0.3,1.5-1,2.3-1c8.2,0.2,16.5,0.3,24.7,0.8c2.1,0.1,4.4,1,6.3,1.9
			c5.5,2.8,7.9,8.1,5.7,13.9c-1.3,3.4-3.7,6.3-5.7,9.4C430.7,369.2,429.7,369.7,428.8,370.3z M418.7,369c2.6,0.2,6.1-0.2,7.9-3.6
			c2.5-4.5,2.2-9.3-0.3-13.7c-2.3-4.1-6.1-5.7-10.8-5.4c-1.9,0.1-2.6,0.7-2.6,2.7c0.1,5,0,10.1,0,15.1
			C413.1,369.5,412.2,368.8,418.7,369z"/>
		<path class="st2" d="M559,343.8c0.7-0.4,1.5-1.1,2.2-1.1c5.3,0,10.6,0,15.8,0.1c0.8,0,1.5,0.6,2.3,1c-0.6,0.5-1.3,1-1.9,1.6
			c-1,1.1-2.8,2.1-2.9,3.3c-0.3,4.9-0.1,9.8-0.1,14.7c0.2,0.2,0.5,0.3,0.7,0.5c5.5-5.4,11-10.8,16.4-16.3c0.6-0.6,0.9-2,0.7-2.9
			c-0.3-1.6,0.3-2,1.6-2c4.3,0,8.6,0,12.9,0.2c0.8,0,1.5,0.7,2.3,1c-0.7,0.5-1.3,1-2,1.4c-2.8,1.5-6.1,2.4-8.5,4.3
			c-6.1,5-11.9,10.4-17.9,15.8c0.7,0.8,1.2,1.3,1.7,1.8c6.5,6.1,12.8,12.4,19.5,18.3c3.6,3.2,7.7,6,12.7,6.7
			c0.7,0.1,1.3,0.8,1.9,1.3c-0.5,0.6-0.9,1.4-1.5,1.6c-3.5,1.2-7.2,1.4-10.7,0c-6-2.4-11.1-6-15.6-10.7c-4.4-4.6-9.2-9-14-13.7
			c-0.1,0.9-0.3,1.4-0.3,2c0,5.3,0.1,10.6,0,15.8c0,2.2,0.9,3.4,3.1,3.6c0.2,0,0.4,0,0.5,0.1c0.9,0.6,1.8,1.1,2.7,1.7
			c-1,0.3-2,1-3,1c-4.9,0.1-9.9,0-14.8-0.1c-0.9,0-1.8-0.7-2.7-1.1c0.8-0.5,1.5-1.2,2.3-1.4c2.3-0.5,2.7-2.2,2.7-4.1
			c0-5,0-10.1,0-15.1c0-8-0.1-16,0-24c0-2.2-0.9-3.1-2.9-3.6C561.3,345.1,560.2,344.4,559,343.8L559,343.8z"/>
		<path class="st2" d="M226.9,394.2c-0.4-2.2-0.5-3.8-1-5.2c-1.6-4.2-3.5-8.4-5.2-12.5c-0.5-1.3-1.3-1.9-2.8-1.9
			c-3.6,0.1-7.3-0.1-10.9,0.1c-0.9,0-2.2,0.8-2.6,1.6c-1.7,4.1-3.1,8.3-4.6,12.5c-0.7,1.8,0,2.8,1.8,3.3c0.7,0.2,1.2,0.9,1.8,1.3
			c-0.7,0.3-1.3,0.9-2,0.9c-4.5,0-8.9,0-13.4-0.1c-0.7,0-1.3-0.6-2-1c0.5-0.4,1-1,1.6-1.2c3.2-1.1,4.9-3.5,6.1-6.4
			c5.9-14.1,11.8-28.3,17.7-42.5c1-2.3,2.4-2.5,3.7-0.3c1.9,3.2,3.5,6.6,5,9.9c4.9,10.9,9.6,21.9,14.4,32.8c1.4,3.1,3.1,5.8,7,6.2
			c0.5,0.1,1,0.8,1.5,1.3c-0.5,0.4-1,1.1-1.6,1.1c-4.7,0.1-9.4,0.1-14.1,0C227,394.4,226.6,394.1,226.9,394.2z M217.8,369.9
			c-1.9-4.9-3.5-9.3-5.2-13.7c-0.2,0-0.4,0-0.6,0.1c-1.6,4.4-3.2,8.9-5,13.6C210.7,369.9,214,369.9,217.8,369.9z"/>
		<path class="st2" d="M361.9,342.8c1.1-0.2,2.1-0.5,3.2-0.5c6.4,0.1,12.7,0.3,19.1,0.3c3.2,0,6.4-0.3,9.6-0.7
			c1.8-0.2,2.6,0.2,2.2,2.1c-0.5,2.3-0.9,4.5-1.6,6.7c-0.2,0.6-0.9,1-1.4,1.5c-0.5-0.5-1.3-0.9-1.4-1.4c-0.6-2.8-2.7-3.6-5.1-3.8
			c-2.5-0.2-5-0.2-7.4,0c-0.6,0-1.6,1.1-1.6,1.7c-0.1,4.6-0.1,9.2,0,13.9c0,0.6,1.1,1.7,1.7,1.7c2.9,0.2,5.8,0.3,8.6,0
			c1.6-0.2,3.1-1.4,4.7-2c0.6-0.3,1.5-0.6,2-0.4c0.4,0.3,0.6,1.3,0.6,1.9c-0.3,2.9-0.7,5.7-1.2,8.6c-0.1,0.6-0.7,1.5-1.2,1.5
			c-0.6,0.1-1.7-0.5-1.8-0.9c-0.7-4.1-3.9-3.8-6.9-4.1c-6.6-0.7-6.6-0.8-6.6,5.7c0,3.5-0.1,7.1,0.1,10.6c0.1,1.2,0.8,2.9,1.7,3.5
			c4,2.6,8.4,3,12.6,0.6c1.3-0.8,2-2.7,3.1-4c0.5-0.6,1.1-1,1.6-1.4c0.3,0.7,1,1.5,0.9,2.2c-0.3,2-0.9,4-1.3,6
			c-0.3,1.8-1.4,2.6-3.1,2.5c-3.1,0-6.3-0.2-9.4-0.2c-5.9,0-11.9,0-17.8,0c-0.9,0-1.8-0.5-2.6-0.8c0.7-0.5,1.5-0.9,2.1-1.5
			c0.9-0.8,2-1.6,2.3-2.6c0.5-1.4,0.5-3.1,0.6-4.6c0-11.6,0-23.1,0-34.7c0-3.9,0-3.9-3.6-5.1c-1-0.3-1.8-0.9-2.8-1.3
			C361.8,343.5,361.8,343.1,361.9,342.8z"/>
		<path class="st2" d="M274.2,346.9c-0.4,1.7-0.7,3.5-1.2,5.2c-0.2,0.5-1.1,1-1.7,1c-0.4,0-0.9-0.8-1.1-1.4c-1.9-6-8.7-8.4-13.9-4.8
			c-3,2.1-4,6.1-1.7,9.1c1.9,2.5,4.4,4.7,6.8,6.8c3.1,2.8,6.6,5.2,9.7,8.1c3.9,3.7,6.1,8.4,3.6,13.6c-1.3,2.7-3.8,5.2-6.4,6.9
			c-5.1,3.4-10.9,4.8-17.2,3.9c-5.7-0.8-8-4.1-6.7-9.7c0.2-1,0.3-2,0.7-2.9c0.3-0.7,1-1.1,1.4-1.7c0.5,0.6,1.2,1.2,1.4,2
			c0.8,5,2.5,6.8,7.6,7.8c4.1,0.8,9.6-1.3,11.4-4.4c1.3-2.3,1.2-4.8-0.4-6.8c-2-2.6-4.2-5.1-6.6-7.3c-3.4-3.3-7.2-6.3-10.6-9.7
			c-1.7-1.7-3-3.7-4-5.9c-1.7-3.8-0.8-7.4,2.4-10c6.1-5.1,13.4-6,21-5.5c0.2,0,0.5,0.1,0.7,0.1C274,342.2,274,342.2,274.2,346.9z"/>
		<path class="st0" d="M497.6,370.4c0.2,6-2.1,11.7-6.7,16.1c-7.2,7-23,6.6-30-2.5c-7-9-8.8-19.5-4.1-28.3c3.1-5.7,8.1-8.7,14.4-9.8
			C488,343,498.2,357.3,497.6,370.4z"/>
		<path class="st0" d="M418.7,369c-6.6-0.2-5.7,0.5-5.7-5c-0.1-5,0.1-10.1,0-15.1c0-1.9,0.7-2.5,2.6-2.7c4.7-0.3,8.5,1.3,10.8,5.4
			c2.5,4.4,2.8,9.2,0.3,13.7C424.8,368.9,421.4,369.2,418.7,369z"/>
		<path class="st0" d="M217.8,369.9c-3.9,0-7.1,0-10.8,0c1.7-4.7,3.4-9.2,5-13.6c0.2,0,0.4,0,0.6-0.1
			C214.3,360.6,216,365,217.8,369.9z"/>
	</g>
</g>
<g id="Layer_2_00000021091955214319535160000010343237483554697148_">
	<g>
		<path d="M180.4,392.4c-0.5,2.3-1.2,4.4-2,6.2c-0.2,0.3-0.4,0.5-0.8,0.5c-3.6,0.7-7.2,1.2-10.9,1.6c-3.6,0.4-7.3,0.6-11.1,0.6
			c-4.7,0-9-0.9-13-2.6c-4-1.8-7.4-4.3-10.3-7.5c-2.9-3.2-5.1-7.1-6.8-11.6s-2.5-9.5-2.5-15c0-5.9,1-11.5,2.9-17
			c1.9-5.4,4.7-10.2,8.2-14.5c1.3-1.6,3-2.9,5-4c2-1.1,4.1-1.9,6.4-2.6c2.2-0.7,4.5-1.1,6.8-1.4c2.3-0.3,4.3-0.4,6.1-0.4
			c2.1,0,4.2,0.1,6.3,0.5c2.1,0.3,4.1,0.6,6.1,0.9c1.5,0.3,3,0.5,4.5,0.8c1.5,0.2,3,0.4,4.4,0.6c0.6,0,0.9,0.3,0.9,0.9
			c-0.1,3.1-0.2,6.1-0.5,9.1c-0.3,3-0.7,6-1.1,9c-0.1,0.5-0.5,0.8-1,0.8c-0.5,0-0.8-0.3-0.9-0.8c-0.4-2.9-1.2-5.4-2.3-7.5
			c-1.1-2.2-2.6-4-4.2-5.5c-1.7-1.5-3.6-2.6-5.7-3.3c-2.1-0.7-4.4-1.1-6.8-1.1c-4,0-7.5,0.7-10.7,2.2c-3.2,1.5-5.9,3.5-8.2,6.1
			c-2.3,2.6-4,5.8-5.2,9.6c-1.2,3.8-1.8,8-1.8,12.5c0,4.8,0.7,9.4,2.2,13.9c1.5,4.5,3.5,8.4,6.1,11.9c2.6,3.5,5.7,6.2,9.3,8.3
			c3.6,2.1,7.5,3.1,11.8,3.1c2.5,0,4.6-0.3,6.3-0.9c1.7-0.6,3.3-1.5,4.6-2.8c1.3-1.2,2.5-2.8,3.5-4.6c1-1.9,2-4,3.1-6.5l1.9,0.2
			c0.2,1.1,0.3,2.3,0.3,3.5C181.2,387.9,180.9,390.1,180.4,392.4z"/>
		<path d="M234.1,394.9c-1.4,0.1-2.8,0.1-4.2,0.1c-1,0-2,0-3,0c-1,0-2-0.1-3-0.1c-0.5,0-0.8-0.2-0.9-0.5c-0.1-0.3,0-0.7,0.3-1
			l0.8-1.1c-1.1-3.1-2.3-6.1-3.4-9c-1.1-2.9-2.2-5.9-3.4-9h-13.8c-0.5,1.1-1,2.4-1.5,4.1c-0.6,1.7-1.1,3.3-1.7,5
			c-0.6,1.7-1,3.2-1.4,4.6c-0.4,1.4-0.6,2.5-0.6,3c0,0.7,0.4,1.2,1.1,1.5c0.7,0.2,1.4,0.4,2,0.5c0.6,0.1,0.8,0.4,0.8,1
			c0,0.6-0.3,0.9-0.9,0.9l-15.1-0.3l0.3-1.8c0.6,0.2,1.2,0.2,1.8-0.1c0.6-0.3,1.2-0.7,1.8-1.2c0.6-0.6,1.1-1.2,1.6-2
			c0.5-0.7,0.9-1.4,1.2-2c1.1-3.2,2.3-6.5,3.6-9.9c1.2-3.4,2.4-6.6,3.6-9.9c1.7-4.7,3.3-9.4,5-14.1c1.7-4.7,3.4-9.3,5.1-14
			c0.2-0.5,0.7-0.6,1.3-0.4c0.4,0.2,0.8,0.6,1.2,1.3c0.4,0.7,0.8,1.4,1.2,2.2c0.4,0.8,0.8,1.7,1.1,2.6c0.3,0.9,0.7,1.8,0.9,2.5v-0.1
			c0.2,0.5,0.3,0.9,0.4,1.2c0.1,0.4,0.2,0.6,0.3,0.9v-0.1l3.8,10.3c1.8,4.8,3.6,9.6,5.4,14.5c1.8,4.9,3.8,9.6,6,14.2
			c0.7,1.5,1.6,2.5,2.8,3c1.2,0.5,2.4,0.8,3.7,0.9v1.8C236.8,394.7,235.4,394.8,234.1,394.9z M210.1,353.1c-1,2.9-1.8,5.7-2.6,8.4
			c-0.8,2.6-1.7,5.5-2.8,8.5h10.9L210.1,353.1z"/>
		<path d="M269.3,387.2c-1.3,1.9-3,3.6-4.9,4.9c-2,1.3-4.1,2.4-6.3,3c-2.3,0.7-4.3,1-6.1,1c-0.9,0-1.9-0.1-3-0.3
			c-1.1-0.2-2.1-0.6-3.1-1.1c-0.9-0.5-1.8-1.2-2.4-2.1c-0.7-0.9-1-2-1-3.5c0-0.7,0.1-1.4,0.2-2c0.1-0.7,0.3-1.4,0.6-2.1
			c0.3-0.7,0.5-1.7,0.5-2.8c0-0.3,0.1-0.5,0.3-0.5c0.2-0.1,0.5-0.1,0.7-0.1c0.2,0,0.4,0.1,0.6,0.2c0.2,0.1,0.3,0.3,0.3,0.6v1.2
			c-0.1,1.4,0.1,2.6,0.6,3.6c0.5,1,1.3,1.9,2.2,2.6c0.9,0.7,1.9,1.2,3.1,1.5c1.1,0.3,2.2,0.5,3.3,0.5c0.9,0,1.9-0.2,3.1-0.5
			c1.1-0.4,2.2-0.9,3.1-1.5c1-0.7,1.8-1.5,2.4-2.5c0.6-1,0.9-2.2,0.9-3.5c0-1.2-0.3-2.4-0.9-3.6c-0.6-1.2-1.4-2.4-2.3-3.7
			c-0.9-1.3-2-2.5-3.2-3.7c-1.2-1.2-2.4-2.4-3.6-3.6c-1.4-1.3-2.7-2.7-4.1-4.1c-1.3-1.4-2.6-2.8-3.7-4.2c-1.1-1.4-2-2.9-2.6-4.3
			c-0.7-1.4-1-2.9-1-4.5c0-2.5,0.7-4.5,2-6.2c1.3-1.7,3-3,4.9-4c1.9-1,4-1.7,6.1-2.1c2.1-0.4,4-0.6,5.5-0.6c2.5,0,4.9,0.3,7.2,0.9
			c0.6,0.1,0.9,0.5,0.8,1v2.8c0,1.3,0,2.7-0.1,4c-0.1,1.4-0.5,2.5-1.2,3.4c-0.3,0.3-0.7,0.4-1.2,0.3c-0.4-0.1-0.6-0.4-0.6-0.9
			c0-1.3-0.2-2.4-0.7-3.3c-0.5-0.9-1.1-1.7-1.9-2.4c-0.8-0.7-1.6-1.2-2.6-1.5c-0.9-0.3-1.9-0.5-2.9-0.5c-1,0-1.9,0.2-2.9,0.6
			c-0.9,0.4-1.8,0.9-2.5,1.5c-0.7,0.7-1.3,1.5-1.8,2.5c-0.5,1-0.7,2.1-0.7,3.4c0,1.1,0.3,2.3,0.8,3.4c0.5,1.1,1.3,2.2,2.1,3.4
			c0.9,1.1,1.9,2.1,3,3.1c1.1,1,2.1,2,3.2,2.9c1.3,1.2,2.7,2.4,4,3.6c1.4,1.2,2.6,2.5,3.7,4c1.1,1.4,2,2.9,2.7,4.4
			c0.7,1.5,1,3.2,1,4.9C271.3,383,270.6,385.3,269.3,387.2z"/>
		<path d="M318.6,350.4c-0.1,0.5-0.5,0.7-1,0.7c-0.5,0-0.8-0.2-0.9-0.7c-0.4-2.3-1.3-3.8-2.8-4.5c-1.5-0.6-3.1-1-4.9-1
			c-0.5,0-0.9,0-1.4,0s-0.9,0-1.5,0.1s-1.1,0.1-1.6,0.1c-0.6,0-1.1,0-1.7,0c-0.5,0-0.7,0-0.8,0.1c-0.1,0.1-0.3,0-0.7-0.1v41.4
			c0,0.2,0,0.6,0.1,1.1c0.1,0.6,0.2,1.2,0.3,1.8c0.1,0.6,0.2,1.2,0.3,1.7s0.2,0.8,0.3,0.9h0.1c0.2,0.1,0.6,0.2,1.1,0.3
			c0.5,0.1,0.9,0.1,1.2,0.2c0.6,0.1,1.2,0.2,1.8,0.3c0.5,0.1,0.9,0.5,1.2,1c0.2,0.3,0.2,0.6,0,0.9c-0.2,0.3-0.5,0.4-0.9,0.4
			c-2.9,0-5.8,0-8.7-0.1c-2.9-0.1-5.8-0.2-8.7-0.3c-0.5,0-0.8-0.3-0.8-0.8c0-0.5,0.2-0.9,0.7-1c0.9-0.1,1.6-0.3,2.1-0.5
			c0.6-0.2,1-0.4,1.3-0.9c0.3-0.4,0.5-1,0.6-1.6c0.1-0.7,0.2-1.6,0.2-2.9v-42.1h-10.9c-1.3,0-2.4,0.5-3.5,1.4
			c-1.1,0.9-1.9,2.1-2.5,3.4c-0.2,0.4-0.6,0.6-1,0.5c-0.5-0.1-0.7-0.3-0.9-0.7c-0.1-0.2-0.1-0.6-0.1-1.3c0-0.9,0.1-1.9,0.4-3
			c0.3-1.1,0.6-2.2,0.9-3.2c0.1-0.3,0.2-0.7,0.3-1.1s0.2-0.8,0.3-1.2c0.1-0.3,0.3-0.5,0.6-0.6c0.3-0.1,0.6-0.1,0.9,0
			c0.2,0.2,0.6,0.4,1.2,0.6c0.5,0.2,1.1,0.3,1.7,0.4c0.6,0.1,1.1,0.2,1.7,0.4c0.5,0.1,1,0.1,1.3,0.1h30.7c0.3,0,0.7-0.1,1.1-0.2
			c0.5-0.1,0.9-0.3,1.4-0.4h-0.1c0.2-0.1,0.4-0.2,0.7-0.2c0.3,0,0.6-0.1,0.9-0.1c0.7-0.1,1.1,0.2,1.1,0.9v1.6
			C319.4,345,319.1,347.7,318.6,350.4z"/>
		<path d="M357.7,385.1c0,0.2,0,0.4,0,0.6c-0.1,1.3-0.2,2.6-0.3,3.9c-0.1,1.3-0.5,2.6-1,3.8c0.2,0.1,0.3,0.1,0.3,0.1
			c0.1,0,0.2,0,0.3,0l-0.3,1.8c-1.3-0.1-2.7-0.2-4-0.2c-1.3,0-2.7,0-4,0c-1.4,0-2.8,0-4.1,0c-1.3,0-2.7,0-4,0.1c-1.1,0-2.3,0-3.5,0
			c-1.2,0-2.4,0.1-3.5,0.1c-3,0-5.9-0.1-8.7-0.3c-0.6-0.1-0.8-0.4-0.8-0.9c0-0.6,0.3-0.9,0.9-0.9c1.5-0.1,2.6-0.7,3.1-1.8
			c0.5-1.1,0.8-2.6,0.8-4.3v-40.6c0-1.5-0.3-2.5-0.9-2.9c-0.6-0.4-1.2-0.6-1.8-0.6c-0.5-0.1-1.1-0.2-1.7-0.4c-0.6-0.2-1-0.5-1.2-0.9
			c-0.2-0.3-0.2-0.6,0-0.9c0.2-0.3,0.5-0.4,0.9-0.4h4.8c0.9,0,1.7,0,2.5,0c0.8,0,1.7,0,2.5,0c1.3,0,2.5,0,3.8,0.1
			c1.3,0.1,2.5,0.3,3.7,0.7c0.5,0.1,0.7,0.5,0.6,1c-0.1,0.5-0.3,0.8-0.9,0.8h-1c-1-0.1-1.8,0.1-2.5,0.8c-0.7,0.6-1.1,1.5-1.1,2.8
			v37.3c0,1.3,0.2,2.5,0.7,3.5c0.5,1,1.1,1.8,1.9,2.5c0.8,0.7,1.7,1.2,2.7,1.5c1,0.3,2,0.5,3.1,0.5c2.1,0,4.2-0.6,6.1-1.9
			c2-1.3,3.5-3.1,4.6-5.4c0.3-0.4,0.7-0.5,1.2-0.5c0.5,0.1,0.8,0.4,0.8,0.9C357.7,384.7,357.7,384.9,357.7,385.1z"/>
		<path d="M391.7,394.4l-0.7,0.4c-0.3,0.1-1,0.2-2,0.2c-1,0-2,0-3.1,0c-1.1,0-2.2-0.1-3.2-0.1c-1,0-1.7-0.1-2.1-0.1
			c-0.9,0-1.8,0-2.8,0.1c-0.9,0-1.8,0-2.8,0c-2.1,0-4.1,0-6.2,0c-2.1,0-4.1,0-6.1-0.1c-0.5-0.1-0.8-0.4-0.7-0.9
			c0-0.6,0.3-0.9,0.8-0.9c1.6-0.1,2.7-0.6,3.2-1.8c0.5-1.1,0.8-2.5,0.8-4.4v-41c0-1.1-0.3-1.9-0.8-2.2c-0.5-0.4-1.1-0.6-1.8-0.8
			c-0.5-0.1-0.9-0.3-1.4-0.4c-0.5-0.1-1-0.4-1.4-0.7c-0.5-0.3-0.6-0.6-0.4-1c0.2-0.4,0.5-0.6,1-0.6c0.5,0,1.2,0,2,0
			c0.8,0,1.8,0,2.8,0c1.7,0.1,3.5,0.1,5.4,0.1c1.9,0,3.9,0,5.9,0c2.9,0,5.5-0.1,7.8-0.2c2.4-0.1,3.9-0.4,4.7-0.7
			c0.4-0.1,0.7-0.1,1,0.1c0.3,0.2,0.4,0.5,0.3,0.8c-0.1,1.3-0.3,2.4-0.5,3.5c-0.2,1.1-0.5,2.1-0.7,3.2c-0.1,0.5-0.2,0.9-0.3,1.3
			c-0.1,0.4-0.1,0.8-0.3,1.2c-0.1,0.5-0.5,0.7-1,0.7c-0.6,0-0.9-0.3-0.9-0.8c-0.1-1.1-0.3-2-0.7-2.7c-0.4-0.7-0.9-1.2-1.5-1.5
			c-0.6-0.4-1.3-0.6-2.1-0.8c-0.8-0.1-1.6-0.2-2.4-0.2c-0.5,0-0.9,0-1.3,0c-0.4,0-0.9,0-1.3,0c-0.4,0-0.8,0-1.3,0
			c-0.5,0-0.9,0.1-1.4,0.1h-1.5v19.1h10.3c0.3,0,0.7-0.1,1.1-0.4c0.5-0.2,0.9-0.5,1.5-0.6h-0.1c0.5-0.3,0.9-0.6,1.2-1.1
			c0.4-0.5,0.7-0.8,1.1-0.9c0.4-0.1,0.7-0.1,1,0.1c0.3,0.2,0.4,0.5,0.3,0.9c-0.1,0.9-0.2,1.9-0.3,3.1s-0.2,2.2-0.3,3.1
			c-0.1,0.8-0.2,1.6-0.3,2.4c-0.1,0.8-0.2,1.7-0.3,2.6c-0.1,0.3-0.3,0.6-0.6,0.7c-0.3,0.1-0.7,0.1-0.9-0.2c-0.7-0.5-1-0.8-1-1
			c0-0.2,0-0.4,0-0.8c-0.2-0.6-0.4-1.2-0.6-1.7c-0.2-0.5-0.4-0.9-0.6-1c-0.3-0.3-0.9-0.5-1.7-0.6c-0.9-0.2-1.8-0.3-2.9-0.4
			c-1.1-0.1-2.1-0.1-3.1-0.1c-1,0-1.9,0-2.6,0h-1.1v19.4c0.9,1.5,2.2,2.5,3.9,3.2c1.7,0.7,3.2,1,4.7,1c1.8,0,3.5-0.5,5.1-1.5
			c1.5-1,2.6-2.7,3.1-5c0.1-0.2,0.2-0.4,0.4-0.5c0.2-0.1,0.5-0.1,0.7-0.1c0.2,0,0.4,0.1,0.6,0.3c0.2,0.2,0.3,0.4,0.2,0.5
			L391.7,394.4z"/>
		<path d="M443.1,396.4c-2,0-3.8-0.4-5.4-1.1c-1.6-0.7-3.1-1.7-4.4-2.9c-1.3-1.2-2.6-2.6-3.7-4.1c-1.1-1.5-2.3-3.1-3.4-4.7
			c-1-1.5-1.9-2.9-2.9-4.2c-1-1.3-2-2.5-3.1-3.6c-1-1-2.2-1.6-3.7-1.9c-1.5-0.2-2.9-0.4-4.2-0.4c-0.5,0-0.8,0-0.9-0.1
			c-0.1,0-0.4,0-0.9,0.1v13.2c0,0.3,0,0.7,0.1,1.2c0.1,0.6,0.2,1.2,0.3,1.8c0.1,0.6,0.2,1.2,0.4,1.7c0.1,0.5,0.3,0.8,0.4,0.9
			c0.2,0.1,0.4,0.2,0.8,0.2c0.4,0,0.7,0,1,0.1c0.5,0.1,1,0.1,1.6,0.2c0.5,0.1,1,0.4,1.5,0.8c0.5,0.3,0.6,0.6,0.4,1
			c-0.2,0.4-0.5,0.6-1,0.6c-2.9,0-5.8,0-8.7,0c-2.9,0-5.8-0.1-8.7-0.4c-0.5-0.1-0.8-0.4-0.8-0.9c0-0.5,0.2-0.8,0.7-0.9
			c0.9-0.1,1.6-0.3,2.2-0.5c0.5-0.2,1-0.5,1.2-0.9c0.3-0.4,0.5-1,0.6-1.8c0.1-0.8,0.1-1.8,0.1-3v-40.6c0-1.6-0.3-2.6-0.9-2.9
			c-0.6-0.3-1.2-0.5-1.8-0.6c-0.6-0.1-1.2-0.2-1.6-0.3c-0.5-0.1-0.8-0.5-1.1-1c-0.2-0.3-0.3-0.6-0.1-0.9c0.2-0.3,0.5-0.4,0.9-0.4
			h1.3c0.6,0,1.3,0,2,0c0.7,0,1.4,0,2.1,0.1c0.9,0.1,1.8,0.1,2.6,0.1c0.8,0,1.7,0,2.6,0h1.8c0.6,0,1.1,0,1.7,0c0.5,0,1.1,0,1.8,0
			c2.1,0,4.3,0.1,6.7,0.4c2.3,0.3,4.4,0.9,6.3,1.8c1.9,0.9,3.5,2.3,4.7,4.1c1.2,1.8,1.8,4.2,1.8,7.3c0,1.5-0.2,3.1-0.7,4.6
			c-0.5,1.5-1.1,3-1.9,4.4c-0.8,1.4-1.6,2.7-2.6,4c-0.9,1.2-1.9,2.4-2.9,3.4c0.9,1,1.7,2.1,2.5,3.1s1.7,2.2,2.5,3.5
			c1.4,1.9,2.8,3.9,4.4,5.9c1.5,2,3.2,3.8,4.8,5.4c1.7,1.6,3.4,2.9,5.1,3.9c1.7,1,3.4,1.3,5.2,1.1l0.5,1.7
			C448,395.9,445.6,396.4,443.1,396.4z M424.4,352.4c-0.5-1.7-1.2-3.2-2.2-4.5c-0.9-1.3-2.1-2.3-3.4-3c-1.3-0.8-2.8-1.1-4.4-1.1
			c-1.4,0-2.7,0.2-4,0.6v24.1c1,0.1,2,0.2,3.1,0.3c1.1,0.1,2.1,0.1,3.1,0.1c2.8,0,4.9-1,6.4-3s2.2-4.7,2.2-8.1
			C425.1,355.8,424.9,354.1,424.4,352.4z"/>
		<path d="M497.3,381c-1.7,3.4-3.9,6.2-6.6,8.5c-2.7,2.3-5.8,4-9.2,5.1c-3.4,1.1-6.8,1.7-10.3,1.7c-3.4,0-6.8-0.8-10.1-2.2
			s-6.2-3.5-8.7-6.1s-4.6-5.7-6.1-9.2c-1.5-3.6-2.3-7.4-2.3-11.5c0-4.5,0.8-8.6,2.5-12.1c1.7-3.5,3.9-6.5,6.6-9
			c2.7-2.4,5.8-4.3,9.3-5.5c3.5-1.3,7-1.9,10.6-1.9c3.6,0,7,0.8,10.2,2.5c3.2,1.7,6.1,3.9,8.6,6.7c2.5,2.8,4.4,6.1,5.9,9.8
			c1.5,3.7,2.2,7.7,2.2,11.8C499.8,373.7,498.9,377.6,497.3,381z M490.6,359.2c-1-3.2-2.4-6-4.2-8.4c-1.8-2.4-4-4.3-6.5-5.7
			c-2.6-1.4-5.4-2.1-8.5-2.1c-2.9,0-5.5,0.5-8,1.6c-2.4,1.1-4.5,2.6-6.3,4.5c-1.7,2-3.1,4.3-4.1,7.1c-1,2.8-1.5,5.9-1.5,9.4
			c0,3.5,0.5,6.9,1.5,10.1c1,3.2,2.5,6,4.3,8.5c1.9,2.4,4.1,4.4,6.7,5.8c2.6,1.4,5.4,2.1,8.6,2.1c2.9,0,5.6-0.6,8-1.6
			c2.4-1.1,4.4-2.7,6.1-4.7c1.7-2,3-4.5,3.9-7.3c0.9-2.8,1.4-6,1.4-9.4C492.1,365.6,491.6,362.3,490.6,359.2z"/>
		<path d="M551.2,386.5c-0.4,1.7-0.9,3.3-1.4,4.6c-0.1,0.3-0.3,0.5-0.5,0.6c-3,1.1-6.3,2-9.8,2.9c-3.6,0.8-7,1.2-10.2,1.2
			c-3.4,0-6.6-0.6-9.7-1.9c-3.1-1.3-5.8-3.1-8.2-5.6c-2.4-2.4-4.3-5.3-5.7-8.6c-1.4-3.3-2.1-7-2.1-11.1c0-4.3,0.9-8.6,2.6-12.7
			c1.7-4.1,4-7.6,6.8-10.5c1.1-1.2,2.6-2.2,4.3-3c1.7-0.8,3.5-1.4,5.4-1.9c1.9-0.5,3.8-0.8,5.6-1c1.9-0.2,3.5-0.3,4.9-0.3
			c1.8,0,3.5,0.1,5.2,0.3c1.7,0.2,3.4,0.4,5,0.7c1.3,0.2,2.6,0.4,3.8,0.5c1.2,0.2,2.4,0.3,3.7,0.5c0.6,0,0.9,0.3,0.9,0.8
			c-0.1,2.3-0.2,4.6-0.5,6.9c-0.3,2.3-0.6,4.5-0.9,6.7c-0.1,0.5-0.5,0.7-1,0.7c-0.5,0-0.8-0.2-0.9-0.7c-0.3-2.3-1-4.2-2.1-5.8
			c-1-1.6-2.2-2.9-3.7-3.9c-1.4-1-3-1.8-4.7-2.2c-1.7-0.5-3.5-0.7-5.2-0.7c-2.9,0-5.7,0.5-8.3,1.4c-2.6,0.9-4.8,2.3-6.8,4.2
			c-1.9,1.9-3.5,4.2-4.6,7c-1.1,2.8-1.7,6-1.7,9.6c0,3.8,0.6,7.3,1.9,10.5c1.3,3.2,3,6,5.1,8.4c2.1,2.4,4.6,4.2,7.5,5.6
			c2.8,1.4,5.8,2,9,2c3.2,0,6.1-0.9,8.8-2.6c2.7-1.7,4.8-4.3,6.4-7.8l2,0.4C551.8,383.2,551.6,384.8,551.2,386.5z"/>
		<path d="M605,396.2c-1.1,0.3-2.2,0.4-3.3,0.4c-2.2,0-4.5-0.6-6.7-1.9c-2.2-1.2-4.5-2.8-6.7-4.7c-2.2-1.9-4.4-4-6.5-6.4
			c-2.1-2.3-4.2-4.6-6.1-6.9c-1.5-1.7-2.7-3.1-3.5-4.1c-0.8-1-1.8-2.1-3.1-3.2v17.4c0,1.4,0,2.5,0.1,3.2c0.1,0.8,0.2,1.3,0.4,1.7
			c0.2,0.4,0.4,0.6,0.6,0.6c0.2,0.1,0.5,0.1,0.9,0.2c0.5,0.1,1,0.1,1.6,0.2c0.6,0.1,1.3,0.4,2,0.8c0.5,0.2,0.6,0.5,0.6,1
			c-0.1,0.5-0.4,0.7-1,0.7c-2.9,0-5.7,0-8.5,0c-2.8,0-5.7-0.1-8.6-0.2c-0.5,0-0.8-0.3-0.8-0.8c0-0.5,0.2-0.9,0.7-1
			c0.9-0.1,1.6-0.3,2.2-0.5s1-0.5,1.2-1c0.3-0.4,0.5-1,0.6-1.8c0.1-0.7,0.1-1.7,0.1-3v-40.6c0-1.5-0.3-2.5-0.9-2.8
			c-0.6-0.3-1.2-0.5-1.8-0.6c-0.6-0.1-1.2-0.2-1.6-0.3c-0.5-0.1-0.8-0.5-1.1-1c-0.2-0.3-0.3-0.6-0.1-0.9c0.2-0.3,0.5-0.4,0.9-0.4
			c2.8,0,5.5,0,8.3,0c2.8,0,5.6,0.1,8.4,0.4c0.5,0.1,0.8,0.4,0.7,0.9c0,0.5-0.3,0.8-0.8,0.8c-1,0.1-1.9,0.5-2.8,1.4
			c-0.9,0.8-1.3,1.9-1.3,3.1c0,2.6,0,5.3,0,8.1c0,2.8,0.1,5.7,0.1,8.5c0.6-0.8,1.4-1.6,2.2-2.4s1.7-1.7,2.5-2.6
			c1.4-1.4,2.8-2.9,4.2-4.4c1.4-1.5,2.8-3,4-4.4c1.2-1.4,2.2-2.7,3-3.9c0.8-1.2,1.2-2.1,1.2-2.9c0-0.7-0.1-1.2-0.3-1.5
			c-0.3-0.3-0.3-0.6-0.2-0.9c0.2-0.3,0.5-0.5,0.9-0.5c1.1,0.1,2.1,0.1,3.2,0.1c1,0,2.1,0.1,3.2,0.1c1.2,0,2.4,0,3.6,0
			c1.3,0,2.5,0.1,3.7,0.2c0.6,0.1,0.9,0.4,0.9,0.9c0,0.5-0.3,0.7-0.9,0.8c-1.5,0.1-3.1,0.7-4.7,1.7c-1.6,1-3.2,2.2-4.9,3.6
			s-3.3,3-4.9,4.8c-1.6,1.8-3.2,3.5-4.7,5.1c-1.3,1.5-2.5,2.9-3.4,4c-1,1.1-2,2.1-3.1,3.1c1,0.9,2,2,3.1,3.2
			c1.1,1.2,2.2,2.5,3.4,3.9c2.1,2.3,4.2,4.8,6.5,7.2c2.3,2.5,4.6,4.8,6.9,6.9c2.3,2.1,4.6,3.8,6.8,5.1c2.2,1.3,4.3,2,6.1,1.9
			l0.5,1.7C607.1,395.5,606.1,395.9,605,396.2z"/>
	</g>
</g>
</svg>
